<svg aria-hidden="true" style="width:0;height:0;position:absolute;overflow:hidden" xmlns="http://www.w3.org/2000/svg"><defs><symbol id="howdoit1" viewBox="0 0 32 32"><path d="M29.071 6.088v-.002a.244.244 0 0 0-.053-.079l-4.231-4.189a.239.239 0 0 0-.035-.028l-.001-.001-.008-.005a.211.211 0 0 0-.03-.016l-.002-.001-.009-.004a.245.245 0 0 0-.087-.017H5.973a.249.249 0 0 0-.25.247v25.546c0 .016.002.033.005.049l.006.02.008.026.012.022c.004.006.007.014.012.02a.337.337 0 0 0 .029.035l.002.002 1.906 1.886a.25.25 0 0 0 .353 0l1.73-1.711 1.729 1.711a.25.25 0 0 0 .354 0l1.729-1.711 1.73 1.711a.252.252 0 0 0 .354 0l1.728-1.711 1.729 1.711a.25.25 0 0 0 .353 0l1.73-1.711 1.728 1.711a.25.25 0 0 0 .354 0l1.729-1.711 1.73 1.711a.25.25 0 0 0 .353 0l1.905-1.886c.004-.003.006-.008.01-.012.007-.008.015-.016.021-.026.006-.008.01-.017.015-.026l.008-.016a.162.162 0 0 0 .01-.034l.004-.012a.263.263 0 0 0 .006-.05V6.181a.255.255 0 0 0-.022-.096l.001.002zm-4.212-3.497 3.377 3.343h-3.377V2.591zm3.731 24.845-1.655 1.638-1.73-1.711a.25.25 0 0 0-.354 0l-1.728 1.711-1.729-1.711a.255.255 0 0 0-.354 0l-1.73 1.711-1.728-1.711a.25.25 0 0 0-.354 0h-.001l-1.728 1.711-1.73-1.711a.255.255 0 0 0-.354 0l-1.728 1.711-1.729-1.711a.255.255 0 0 0-.354 0l-1.73 1.711-1.655-1.638V2.24h18.138v3.941c0 .137.112.248.25.248h3.98v21.007z"/><path d="M8.086 4.583h8.19c.138 0 .25-.111.25-.248s-.112-.248-.249-.248H8.086c-.138 0-.25.111-.25.248s.112.248.25.248zm0 1.531h13.133c.138 0 .25-.111.25-.248a.249.249 0 0 0-.249-.247H8.085c-.138 0-.25.111-.25.247s.112.248.25.248zm-.251 1.374v8.017c0 .137.112.248.25.248h18.639c.138 0 .25-.111.25-.248V7.488a.249.249 0 0 0-.249-.247H8.085a.249.249 0 0 0-.25.247zm5.528.248h13.111v2.131H13.363V7.736zm0 2.626h13.111v2.129H13.363v-2.129zm0 2.625h13.111v2.27H13.363v-2.27zM8.336 7.736h4.527v2.131H8.336V7.736zm0 2.626h4.527v2.129H8.336v-2.129zm0 2.625h4.527v2.27H8.336v-2.27zm18.389 3.88H8.086a.249.249 0 0 0-.25.248v8.017c0 .136.112.247.25.247s.25-.111.25-.247v-2.518h4.527v2.518c0 .137.112.247.25.247s.25-.111.25-.247v-2.518h13.111v2.518c0 .137.112.247.25.247s.25-.111.25-.247v-8.017a.247.247 0 0 0-.248-.247h-.002zm-13.862 5.251H8.336v-2.129h4.527v2.129zm0-2.625H8.336v-2.131h4.527v2.131zm13.611 2.625H13.363v-2.129h13.111v2.129zm0-2.625H13.363v-2.131h13.111v2.131zM4.535 1.745a.249.249 0 0 0-.25.248v25.546c0 .136.112.247.25.247s.25-.111.25-.247V1.993a.25.25 0 0 0-.249-.248h-.001zm-1.376 0a.249.249 0 0 0-.25.248v25.546c0 .136.112.247.25.247s.25-.111.25-.247V1.993a.25.25 0 0 0-.249-.248h-.001z"/></symbol><symbol id="howdoit2" viewBox="0 0 32 32"><path d="M28.09 2.327H14.664c-.872 0-1.579.705-1.583 1.576v5.526l-9.972 4.162a.323.323 0 0 0-.043.574l.001.001 1.272.757v8.066A1.463 1.463 0 0 0 3.2 24.408v.778c0 .178.145.323.325.323h2.278a.324.324 0 0 0 .324-.323v-.777a1.462 1.462 0 0 0-1.129-1.417l-.01-.002v-7.68l1.006.598c-.031.23-.004-.401-.015 3.756 0 1.367 3.52 2.099 7.102 2.14v6.295a1.585 1.585 0 0 0 1.584 1.574H28.09a1.58 1.58 0 0 0 1.583-1.574c0 .043-.002-1.334 0-24.195 0-.857-.713-1.576-1.583-1.576zM5.478 24.408v.454H3.85v-.454c0-.448.364-.812.812-.812h.002c.449 0 .813.363.815.811zm22.612 4.617H14.665a.936.936 0 0 1-.772-.405l-.002-.003a.91.91 0 0 1-.159-.517v-2.183h15.29v2.182a.937.937 0 0 1-.931.926zm.931-3.755h-15.29v-3.464c1.748-.02 7.106-.403 7.106-2.142-.002-2.612.005-3.671-.008-3.76l2.917-1.737a.322.322 0 0 0-.039-.574l-.002-.001-9.973-4.163V6.732h15.29V25.27zm-15.614-7.751c-1.802 0-5.27.232-6.777 1.21.009-2.993-.105-2.799.266-3.052.936-.686 3.613-1.164 6.511-1.164 1.264 0 6.782.346 6.782 1.507v2.709c-1.521-.987-4.972-1.21-6.781-1.21zm.324-13.615c0-.512.419-.929.934-.929h13.424c.515 0 .932.422.932.929v2.182h-15.29V3.904zm-.326 6.09 9.455 3.946-2.342 1.394c-1.246-1.228-5.366-1.466-7.112-1.466-1.749 0-5.869.239-7.112 1.466L3.951 13.94l9.456-3.946zm-6.776 9.67c0-.523 2.327-1.498 6.777-1.498 4.452 0 6.781.975 6.781 1.498s-2.329 1.499-6.781 1.499c-4.45 0-6.777-.976-6.777-1.499z"/><path d="M21.377 26.403h-.002c-.591 0-1.07.478-1.072 1.068 0 .589.482 1.069 1.074 1.069h.001c.591 0 1.071-.478 1.073-1.069a1.073 1.073 0 0 0-1.072-1.068h-.002zm0 1.491a.423.423 0 1 1 0-.845c.235 0 .425.19.425.422a.425.425 0 0 1-.425.423zm1.239-23.687h-2.478v.646h2.478v-.646z"/></symbol><symbol id="howdoit3" viewBox="0 0 32 32"><path d="M14.717 9.194H6.274v.635h8.443v-.635zm0 2.373H7.538v.635h7.18v-.635zm0 2.372H6.274v.635h8.443v-.635zm0 2.372H7.538v.635h7.18v-.635zm0 2.372H6.274v.636h8.443v-.637zm0 2.372H7.538v.636h7.18v-.636zM26.308 9.194h-8.443v.635h8.443v-.635zm-1.265 2.373h-7.179v.635h7.18v-.635zm1.265 2.372h-8.443v.635h8.443v-.635zm-1.265 2.372h-7.179v.635h7.18v-.635zm1.265 2.372h-8.443v.636h8.443v-.637zm-1.265 2.372h-7.179v.636h7.18v-.636z"/><path d="M29.357 8.47h-1.159V6.717a.317.317 0 0 0-.317-.317H18.424c-.912 0-1.707.5-2.126 1.241l-.006.012A2.446 2.446 0 0 0 14.159 6.4H4.702a.317.317 0 0 0-.316.318v1.751H3.227a.317.317 0 0 0-.316.318v17.076c0 .175.141.318.316.318h26.132a.317.317 0 0 0 .316-.318V8.786a.317.317 0 0 0-.316-.317zM18.432 7.037h9.133v17.037h-9.808a1.85 1.85 0 0 0-1.154.426l.003-.002V8.857a1.82 1.82 0 0 1 1.821-1.821h.004zm-13.416 0H14.156c.984 0 1.785.783 1.814 1.76V8.8c0 .013.002.056.004.07v15.628a1.834 1.834 0 0 0-1.145-.422H5.014V7.038zM3.542 9.105h.842v15.286c0 .176.142.318.317.318h10.128c.482 0 .948.318 1.097.835H3.543V9.104zm25.498 16.44H16.657a1.145 1.145 0 0 1 1.101-.835h10.124a.318.318 0 0 0 .317-.318V9.106h.842v16.44z"/></symbol><symbol id="howdoit4" viewBox="0 0 32 32"><path d="M4.055 13.287v2.471c0 .133.061.258.164.34a9.507 9.507 0 0 0 5.924 2.061h.001a9.58 9.58 0 0 0 1.974-.207l-.063.011c1.242.569 2.693.901 4.223.901h.015-.001.021c1.527 0 2.977-.332 4.281-.927l-.065.026c2.678.545 5.532-.04 7.835-1.866.1-.08.164-.203.164-.34v-2.471a1.05 1.05 0 0 0-.498-.896l-3.351-1.899c.733-.937 1.279-2.271 1.374-3.415.278-1.969-1.315-4.055-3.609-4.055-.965 0-1.882.4-2.554 1.071-.023.023-.05.043-.073.067-.02.022-.037.047-.058.07l-.038.047c-.656-1.205-1.915-1.949-3.4-1.949-.144 0-.286.01-.426.024-.009-.001-.016-.005-.025-.005-.079 0-.248.022-.338.048-.013.003-.023.013-.036.018a3.902 3.902 0 0 0-2.601 1.863l-.01.019a3.603 3.603 0 0 0-2.749-1.271h-.005c-3.386 0-4.889 4.025-2.216 7.489l-3.382 1.891c-.29.188-.479.51-.479.877v.009zm16.465 3.727c-.073.035-.144.074-.218.108l-.002.001a9.339 9.339 0 0 1-3.984.878h-.028.001a9.511 9.511 0 0 1-5.805-1.962l.023.017v-2.505c0-.085.041-.161.088-.193l3.935-2.203c.49.419 1.115.726 1.763.726.625 0 1.299-.312 1.779-.736l3.888 2.199a.243.243 0 0 1 .113.207v2.505c-.451.345-.96.664-1.499.933l-.055.025zm7.069-3.881c.048.032.08.086.08.148v2.265a8.547 8.547 0 0 1-5.867 1.726l.029.002c.32-.201.668-.451.938-.664a.433.433 0 0 0 .165-.34v-2.718c0-.379-.189-.729-.529-.948l-2.065-1.169.502-.28c.609.5 1.132.649 1.602.649.574 0 1.178-.283 1.627-.662l3.518 1.993zm-5.145-9.245c1.196 0 2.246.787 2.618 1.869a3.2 3.2 0 0 1-1.937-.995l-.002-.002a.43.43 0 0 0-.682.071l-.001.002a3.19 3.19 0 0 1-2.207 1.536v-.003l.001-.071c0-.176-.011-.349-.031-.519l.002.021-.006-.058a4.99 4.99 0 0 0-.113-.565l.008.034c.488-.787 1.395-1.321 2.351-1.321zm-2.306 3.364a4.018 4.018 0 0 0 2.735-1.528l.007-.009a4.05 4.05 0 0 0 2.341.922c-.006 1.564-1.274 4.3-2.778 4.3-1.159 0-2.148-1.669-2.518-2.826.094-.297.162-.584.212-.858zm.088 3.255-.768.428-.774-.439c.287-.361.55-.779.776-1.233.217.46.477.881.766 1.244zm-1.158-2.538c-.415 1.245-1.478 3.046-2.772 3.046-1.51 0-2.795-2.499-3.04-4.098.065-.016 2.105.111 3.508-1.746.713.6 1.674.998 2.609 1.037.011.564-.125 1.228-.305 1.762zm-2.747-4.777c2.409 0 2.867 2.089 2.904 2.132a3.565 3.565 0 0 1-2.218-1.112l-.002-.002a.43.43 0 0 0-.683.074l-.001.002a3.55 3.55 0 0 1-2.067 1.623l-.025.006a3.625 3.625 0 0 1-.988.134h-.024.001c.118-1.59 1.383-2.857 3.102-2.857zm-3.196 6.063a6.9 6.9 0 0 0 .791 1.255l-.759.425-.785-.444c.298-.383.551-.81.753-1.235zm-2.994-5.367c.974 0 1.867.498 2.364 1.321-.025.087-.092.435-.101.478a3.182 3.182 0 0 1-1.575-.925l-.002-.002a.427.427 0 0 0-.681.073l-.001.002a3.217 3.217 0 0 1-2.752 1.584h-.001c.137-1.42 1.315-2.531 2.75-2.531zM7.419 7.282a4.066 4.066 0 0 0 3.15-1.558l.007-.009a3.965 3.965 0 0 0 1.755.834l.025.004c.026.502.155 1.111.304 1.561-.237.733-.692 1.606-1.257 2.186-.004.004-.009.005-.012.009-.354.375-.856.627-1.252.627-1.381 0-2.461-2.189-2.721-3.655zm-2.505 6.005c0-.066.029-.122.058-.141l3.567-1.993c.214.18.263.2.306.232.419.282.804.421 1.329.421.559 0 1.068-.239 1.516-.606.025-.02.052-.039.076-.059l.509.288-2.12 1.188a1.111 1.111 0 0 0-.506.935v2.718c0 .133.06.258.165.34.274.217.63.471.938.664a8.64 8.64 0 0 1-5.837-1.728v-2.258z"/><path d="M29.412 20.463c-.27-.175-.6-.279-.955-.279-.286 0-.555.067-.794.187l.01-.005-5.302 2.58a1.836 1.836 0 0 0-1.826-1.808l-3.04.001c-1.499-1.313-3.415-2.117-5.157-2.159a198.629 198.629 0 0 0-3.925-.056h-.055v-.874h-6.04V28.1h6.041v-1.204c1.656.958 6.011 3.357 8.079 3.357.047 0 .093-.001.137-.004 3.635-.205 12.209-6.282 12.774-6.685a1.82 1.82 0 0 0 .897-1.567V21.988c0-.64-.333-1.202-.836-1.523l-.007-.004zM7.509 27.237H3.186v-8.32h4.323v8.32zm21.407-4.414a.29.29 0 0 0-.039.025l.001-.001c-.089.063-8.908 6.346-12.342 6.54a1.682 1.682 0 0 1-.104.003c-1.813 0-6.233-2.402-8.064-3.491v-6.106c.717.003 2.25.015 3.959.055 1.592.038 3.359.804 4.727 2.047l.122.111h3.369c.535 0 .97.438.97.976s-.435.977-.969.977h-6.188v.865h6.188c.593 0 1.116-.29 1.45-.733l6.051-2.944a.917.917 0 0 1 .909.05.93.93 0 0 1 .44.801.948.948 0 0 1-.479.825zm-12.195-9.885h-.859v.803h.859v-.803zm0 1.6h-.859v.803h.859v-.803zm0 1.602h-.859v.802h.859v-.803z"/></symbol><symbol id="howdoit5" viewBox="0 0 32 32"><path d="M4.124 29.091h23.775c.118-2.634-.077-7.005-1.744-9.085l-.06-.075-3.643-1.777c.079-.259.118-.497.134-.671a1.216 1.216 0 0 0-.089-.585c-.601-1.397-1.873-2.132-2.572-2.445.199-.384.345-.829.414-1.3l.003-.023c.401-.109.711-.419.817-.812l.002-.008.425-1.678a1.106 1.106 0 0 0-.392-1.151l-.002-.002c1.199-2.646-.809-5.14-.919-5.271-2.174-2.285-4.921-1.858-5.066-1.833-3.965.807-5.495 3.759-4.631 7.22a1.11 1.11 0 0 0-.266 1.043l-.002-.008.427 1.68c.108.399.415.708.805.816l.008.002c.128.856.494 1.61 1.027 2.212l-.004-.005v1.33c-5.689 2.831-2.085 1.025-6.643 3.266-.009.042-2.139 2.242-1.823 8.761l.019.399zm22.949-.836H23.16v-1.597l2.588-5.756c1.296 2.09 1.344 6.083 1.325 7.354zm-5.34-10.843c-.151 1.686-1.102 1.176-1.69 2.474-.461-.493-.6-1.085-.477-1.719.225-1.163-.506-1.509-.326-2.73l.027-.028v-.004a7.35 7.35 0 0 0 .201-.236c1.548.656 2.294 1.875 2.263 2.243zm-8.305-1.325a4.456 4.456 0 0 0 2.518.771h.002c.879 0 1.713-.248 2.429-.706.099.961.486 1.153.349 1.86-.022.111-.04.244-.048.379v.009l-2.665 2.918-3.406-3.732.822-.417v-1.081zm-1.071-3.572V8.054c.415-.745.98-1.286 1.683-1.609 1.882 1.034 4.048 2.578 5.501 4.132-.001 1.979.006 1.984-.008 2.147l-.001.01c-.113 1.797-1.634 3.286-3.584 3.286-1.896 0-3.47-1.446-3.584-3.304a2.03 2.03 0 0 1-.007-.181v-.022.001zm-.531 5.474 4.186 4.585 2.81-3.077c.065.18.155.349.258.514l-3.068 3.727-4.575-5.559.389-.19zm8.571-6.147V10.55l.32-.356c.017.655.09-.118-.32 1.648zm-5.031-8.646c.17.01 2.455-.337 4.26 1.556.071.087 1.541 1.926.95 3.939-.202-.895-.554-2.043-1.111-2.591l-.608.589c.549.541.911 2.188 1.048 3.042-2.521-2.563-5.773-4.186-5.818-4.214-.163.099-1.54.353-2.539 2.24l-.048.091v1.386l-.126.001c-.635-2.979.581-5.346 3.992-6.04zm-4.083 6.901.216.852v.895l-.36-1.414c-.052-.211.108-.291.143-.332zm-.63 8.465 5.359 6.512 3.626-4.406c.394.343.584.392 1.421.809l-.282-.929c-.072-.236.212-.615.383-.789.383-.204.699-.489.933-.834l.006-.009 2.959 1.443-2.753 6.124v1.772H9.721v-1.773L6.967 20.36l3.686-1.798zm-4.377 2.342 2.588 5.755v1.597H4.951c-.02-1.271.029-5.26 1.325-7.352z"/></symbol><symbol id="howdoit6" viewBox="0 0 32 32"><path d="M3.018 26.769h9.923a3.035 3.035 0 0 0 2.74 1.74h.632a3.027 3.027 0 0 0 2.732-1.721l.008-.018h9.929c1.022 0 1.854-.843 1.854-1.879V6.881c0-1.036-.832-1.879-1.855-1.879H27.98v-.84c0-.691-.555-1.253-1.237-1.253H5.249c-.681 0-1.235.562-1.235 1.253v.84h-.997c-1.022 0-1.854.843-1.854 1.879v18.01c0 1.036.832 1.879 1.855 1.879zm23.725-3.865H16.619V8.347c2.34.311 4.154 2.34 4.154 4.794v.564l-.147-.032a.617.617 0 0 0-.736.474l-.001.004-.984 4.538a.625.625 0 0 0 .471.745l2.127.475a1.582 1.582 0 0 0 1.881-1.227l.57-2.624a1.607 1.607 0 0 0-1.204-1.911l-.741-.166v-.841c0-3.147-2.367-5.744-5.391-6.06V4.16h10.126l-.001 18.743zm-5.779-7.872 1.519.339a.349.349 0 0 1 .264.42v-.002l-.569 2.624a.367.367 0 0 1-.414.272h.002l-1.52-.34.719-3.313zM5.25 4.161h10.131V7.08c-3.027.314-5.397 2.912-5.397 6.061v.841l-.741.166a1.571 1.571 0 0 0-.992.702 1.59 1.59 0 0 0-.208 1.219l-.002-.011.568 2.621a1.596 1.596 0 0 0 1.548 1.266h.001c.112 0 .223-.012.337-.037l2.118-.474a.626.626 0 0 0 .47-.746L12.1 14.15a.618.618 0 0 0-.741-.477l.004-.001-.142.032v-.564c0-2.456 1.818-4.487 4.161-4.794v14.558H5.25V4.162zm5.775 10.871.72 3.313-1.512.339a.35.35 0 0 1-.415-.267v-.002l-.569-2.627a.348.348 0 0 1 .259-.416h.002l1.514-.339zM2.4 6.881v-.004c0-.342.276-.62.618-.623h.995v16.65c0 .691.555 1.253 1.237 1.253h21.494c.682 0 1.236-.562 1.236-1.253V6.254h1.001c.342.002.619.28.619.623V24.894c0 .342-.276.62-.618.623H18.634a.62.62 0 0 0-.591.442 1.808 1.808 0 0 1-1.732 1.297h-.627a1.81 1.81 0 0 1-1.734-1.304.62.62 0 0 0-.589-.435H3.018a.623.623 0 0 1-.619-.623V6.88z"/></symbol></defs></svg>