<svg width="62" height="62" viewBox="0 0 62 62" fill="none" xmlns="http://www.w3.org/2000/svg">
<g clip-path="url(#clip0_1_1931)">
<path d="M13.6772 28.1776C13.6772 28.6237 13 28.6237 13 28.1776C13 18.6926 20.6926 11 30.1776 11C39.6667 11 47.3552 18.6926 47.3552 28.1776C47.3552 28.6237 46.6821 28.6237 46.6821 28.1776C46.6821 21.7664 36.1468 21.7624 36.1468 28.1776C36.1468 28.6237 35.4534 28.6237 35.4534 28.1776C35.4534 21.7826 24.9019 21.7826 24.9019 28.1776C24.9019 28.6237 24.2084 28.6237 24.2084 28.1776C24.2084 21.7948 13.6772 21.7502 13.6772 28.1776ZM24.2693 25.6878C24.4517 21.9976 25.0316 18.6886 25.8751 16.1622C26.5483 14.1549 27.3998 12.6302 28.365 11.7745C21.1225 12.5653 15.2587 18.056 13.9489 25.1768C16.4428 21.5799 22.2011 21.8678 24.2693 25.6878ZM35.4006 25.5215C35.2141 21.9732 34.6504 18.7981 33.8394 16.3771C31.747 10.1119 28.6083 10.1119 26.5158 16.3771C25.7048 18.7981 25.1452 21.9732 24.9546 25.5215C27.2052 21.6975 33.15 21.6975 35.4006 25.5215ZM46.4063 25.1768C45.1006 18.056 39.2368 12.5653 31.9903 11.7745C32.9594 12.6302 33.807 14.1549 34.4801 16.1622C35.3236 18.6886 35.9035 21.9976 36.086 25.6878C38.1663 21.8475 43.9408 21.6204 46.4063 25.1768Z" fill="#FF6B09"/>
<path d="M27.9234 36.0376V32.5494C27.2948 32.9671 26.8001 33.6121 26.8001 34.3989C26.8001 35.1655 27.3029 35.6725 27.9234 36.0376ZM28.6006 37.1205C27.3962 36.5689 26.127 35.924 26.127 34.3989C26.127 32.8252 27.3232 32.0383 28.6006 31.4502V37.1205Z" fill="#FF6B09"/>
<path d="M32.4319 41.3002V44.8281C33.0686 44.4064 33.5674 43.7576 33.5674 42.9709C33.5674 42.1963 33.0564 41.6732 32.4319 41.3002ZM31.7588 40.2134C32.9672 40.773 34.2446 41.438 34.2446 42.9709C34.2446 44.5483 33.0402 45.335 31.7588 45.919V40.2134Z" fill="#FF6B09"/>
<path d="M32.4318 28.5791C35.2055 29.2198 38.0563 31.2961 38.0563 34.3984C38.0563 37.0546 33.5673 36.9572 33.5673 34.3984C33.5673 33.6076 33.0685 32.9588 32.4318 32.5411V37.5047C34.9987 38.3441 38.0644 39.8486 38.0644 42.9712C38.0644 46.0775 35.2136 48.1497 32.4318 48.7864C32.4197 51.7427 27.9306 51.7386 27.9225 48.7824C26.341 48.4174 24.9663 47.6793 23.9728 46.702C22.9306 45.672 22.3142 44.3784 22.3142 42.9712C22.3142 40.3555 26.7992 40.3555 26.7992 42.9712C26.7992 43.7538 27.2939 44.3986 27.9225 44.8163V39.8568C25.3759 39.0335 22.2939 37.4844 22.2939 34.3903C22.2939 31.284 25.1447 29.2117 27.9225 28.575C27.9347 25.6188 32.4237 25.6228 32.4318 28.5791ZM28.5997 28.5872V29.1266C25.9598 29.6497 22.9671 31.3407 22.9671 34.3903C22.9671 37.3222 26.2518 38.6361 28.5997 39.362V45.9153C27.3304 45.3354 26.1261 44.5527 26.1261 42.9712C26.1261 41.2436 22.9874 41.2436 22.9874 42.9712C22.9874 44.1918 23.5308 45.3192 24.4472 46.2194C25.6111 47.3711 27.0222 47.9186 28.5997 48.2308V48.7742C28.5997 50.8546 31.7587 50.8546 31.7587 48.7742V48.2349C34.4067 47.7077 37.3872 46.0167 37.3872 42.9712C37.3872 40.0109 34.1106 38.7375 31.7587 37.9954V31.9693V31.4462C33.032 32.0261 34.2445 32.8087 34.2445 34.3984C34.2445 36.0813 37.3791 36.1503 37.3791 34.3984C37.3791 31.3529 34.4026 29.6578 31.7587 29.1306V28.5872C31.7587 26.5069 28.5997 26.5069 28.5997 28.5872Z" fill="#FF6B09"/>
</g>
<path d="M61 9.23529V1H1V61H61V52.7647" stroke="#FF6B09" stroke-width="2"/>
<defs>
<clipPath id="clip0_1_1931">
<rect width="35" height="40" fill="white" transform="translate(13 11)"/>
</clipPath>
</defs>
</svg>
