<svg viewBox="0 0 62 62" fill="none" xmlns="http://www.w3.org/2000/svg">
<g clip-path="url(#clip0_1_1915)">
<path d="M12.8721 50.6984C17.1733 50.6984 42.0568 50.6984 46.353 50.6984C46.5188 46.8803 46.2453 40.5454 43.8978 37.5302L43.8129 37.4219L38.6831 34.8463C38.7945 34.4706 38.8493 34.1264 38.8713 33.8735C38.8967 33.5698 38.8548 33.2846 38.7464 33.0262C37.9001 31.0011 36.1093 29.9356 35.1243 29.4815C35.4245 28.8767 35.618 28.2274 35.7115 27.564C36.2691 27.4069 36.7176 26.965 36.8646 26.3755L37.4634 23.943C37.5695 23.5139 37.5029 23.0688 37.2748 22.6903C37.1767 22.5272 37.0498 22.3898 36.9074 22.2723C38.5956 18.4377 35.7681 14.8219 35.6141 14.6316C32.5519 11.3208 28.6834 11.9399 28.4789 11.9765C22.8963 13.1455 20.7419 17.424 21.9582 22.4419C21.5979 22.841 21.4466 23.3971 21.5802 23.9424L22.1819 26.3776C22.3278 26.9628 22.7727 27.4031 23.3264 27.5621C23.4972 28.7769 24.0114 29.8758 24.7667 30.7613V32.6897C16.7555 36.7923 21.8316 34.1749 15.4116 37.4228C15.3989 37.4834 12.3991 40.6715 12.845 50.1211L12.8721 50.6984ZM45.1896 49.4863H39.6793V47.1716L43.3238 38.8285C45.1495 41.8588 45.2173 47.6448 45.1896 49.4863ZM37.6691 33.7705C37.4564 36.2132 36.1169 35.4748 35.2899 37.3568C34.6395 36.6416 34.4439 35.784 34.6187 34.866C34.9345 33.1804 33.9057 32.6797 34.1599 30.9086L34.1985 30.868V30.8624C34.2203 30.838 34.4232 30.5963 34.4819 30.52C36.662 31.4704 37.7116 33.2379 37.6691 33.7705ZM25.9737 31.8505C26.9857 32.5525 28.2074 32.9673 29.5215 32.9673C30.759 32.9673 31.9344 32.6072 32.9421 31.9441C33.0818 33.3365 33.626 33.6153 33.4329 34.6399C33.3967 34.8301 33.3771 35.0176 33.3655 35.2019L29.6128 39.4313L24.8157 34.023L25.9737 33.4183V31.8505H25.9737ZM24.465 26.6744V24.3295C24.465 23.466 24.465 20.0401 24.465 20.2093C25.049 19.1291 25.8452 18.3458 26.8347 17.8762C29.4848 19.3756 32.5352 21.6134 34.5809 23.8655C34.579 26.7336 34.589 26.7414 34.57 26.977L34.5687 26.992C34.409 29.5964 32.2676 31.7552 29.5215 31.7552C26.8518 31.7552 24.6353 29.6591 24.475 26.9662C24.4667 26.8697 24.465 26.773 24.465 26.6744ZM23.7177 34.6079L29.6128 41.2536L33.5706 36.793C33.6611 37.0534 33.788 37.2995 33.9331 37.5371L29.6128 42.9398L23.1705 34.8826L23.7177 34.6079ZM35.7879 25.699V23.8267C35.8409 23.7659 36.2909 23.25 36.2379 23.3108C36.2627 24.2588 36.3651 23.1399 35.7879 25.699ZM28.7023 13.1677C28.9417 13.1826 32.1587 12.6783 34.7012 15.4232C34.8012 15.5489 36.8709 18.2154 36.0394 21.1325C35.7549 19.8345 35.2588 18.1711 34.4749 17.3772L33.618 18.2307C34.392 19.0147 34.9004 21.4021 35.0941 22.6398C31.5436 18.9245 26.9635 16.573 26.9007 16.5333C26.671 16.6761 24.7328 17.0446 23.3252 19.7805L23.258 19.9113V21.9206C23.1976 21.9213 23.0201 21.9231 23.0806 21.9225C22.1862 17.6046 23.8989 14.1745 28.7023 13.1677ZM22.9534 23.1694L23.258 24.4035V25.7005L22.7518 23.6515C22.6775 23.3461 22.9037 23.2303 22.9534 23.1694ZM22.066 35.4371L29.6128 44.8758L34.7189 38.4895C35.2744 38.9866 35.5414 39.0571 36.7191 39.6627L36.3219 38.3153C36.2211 37.9732 36.6201 37.4246 36.8611 37.1725C37.3991 36.8806 37.8475 36.4644 38.183 35.9506L42.349 38.0425L38.4723 46.9177V49.4863H20.7527V46.9174L16.8743 38.0434L22.066 35.4371ZM15.9007 38.8311L19.5458 47.1719V49.4863H14.0355C14.0078 47.6454 14.0761 41.8623 15.9007 38.8311Z" fill="#FF6B09"/>
</g>
<path d="M61 9.23529V1H1V61H61V52.7647" stroke="#FF6B09" stroke-width="2"/>
<defs>
<clipPath id="clip0_1_1915">
<rect width="33.1915" height="40" fill="white" transform="translate(13 11)"/>
</clipPath>
</defs>
</svg>
