<svg aria-hidden="true" style="position: absolute; width: 0; height: 0; overflow: hidden;" version="1.1"
    xmlns="http://www.w3.org/2000/svg" xmlns:xlink="http://www.w3.org/1999/xlink">
    <defs>
        <symbol id="howdoit1" viewBox="0 0 32 32">
            <path fill="#ff6b09" style="fill: var(--color1, #ff6b09)"
                d="M29.071 6.087c0-0.001-0.001-0.001-0.001-0.002-0.006-0.014-0.013-0.027-0.021-0.039-0.001-0.001-0.002-0.002-0.002-0.003-0.009-0.013-0.018-0.025-0.030-0.037l-4.231-4.188c-0.011-0.011-0.023-0.020-0.036-0.028-0.002-0.002-0.006-0.003-0.008-0.005-0.010-0.006-0.021-0.012-0.032-0.017-0.003-0.002-0.006-0.003-0.009-0.004-0.028-0.011-0.057-0.017-0.087-0.018-0.002 0-0.003-0-0.005-0h-18.639c-0.138 0-0.25 0.111-0.25 0.248v25.546c0 0.016 0.002 0.032 0.005 0.049 0.002 0.007 0.004 0.013 0.006 0.020 0.003 0.009 0.005 0.018 0.008 0.026s0.008 0.015 0.012 0.022c0.004 0.006 0.007 0.014 0.011 0.020 0.009 0.012 0.018 0.024 0.029 0.035 0.001 0.001 0.001 0.002 0.002 0.003l1.906 1.886c0.098 0.097 0.256 0.097 0.354 0l1.729-1.711 1.729 1.711c0.049 0.049 0.113 0.073 0.177 0.073s0.128-0.024 0.177-0.073l1.729-1.711 1.729 1.711c0.098 0.097 0.256 0.097 0.354 0l1.729-1.711 1.729 1.711c0.098 0.097 0.256 0.097 0.353 0l1.73-1.711 1.729 1.711c0.049 0.049 0.113 0.073 0.177 0.073s0.128-0.024 0.177-0.073l1.729-1.711 1.73 1.711c0.097 0.097 0.256 0.097 0.353 0l1.906-1.886c0.004-0.004 0.006-0.008 0.010-0.012 0.007-0.008 0.015-0.016 0.021-0.025s0.010-0.018 0.014-0.026c0.003-0.006 0.006-0.011 0.008-0.016 0.005-0.011 0.008-0.023 0.011-0.034 0.001-0.004 0.003-0.008 0.004-0.012 0.003-0.017 0.005-0.033 0.005-0.051v-21.356c-0.001-0.032-0.007-0.065-0.020-0.095zM24.859 2.591l3.377 3.343h-3.377v-3.343zM28.59 27.436l-1.655 1.639-1.73-1.711c-0.097-0.096-0.256-0.096-0.353 0l-1.729 1.711-1.729-1.711c-0.098-0.096-0.256-0.096-0.354 0l-1.73 1.711-1.728-1.71c0-0-0-0.001-0-0.001-0.049-0.048-0.113-0.072-0.177-0.072s-0.128 0.024-0.177 0.072c-0 0-0 0-0 0l-1.728 1.711-1.729-1.711c-0.098-0.096-0.256-0.096-0.354 0l-1.729 1.711-1.729-1.711c-0.098-0.096-0.256-0.096-0.354 0l-1.729 1.711-1.655-1.639v-25.196h18.138v3.941c0 0.137 0.112 0.248 0.25 0.248h3.98l0 21.007z">
            </path>
            <path fill="#ff6b09" style="fill: var(--color1, #ff6b09)"
                d="M8.085 4.583h8.19c0.138 0 0.25-0.111 0.25-0.248s-0.112-0.248-0.25-0.248h-8.19c-0.138 0-0.25 0.111-0.25 0.248s0.112 0.248 0.25 0.248z">
            </path>
            <path fill="#ff6b09" style="fill: var(--color1, #ff6b09)"
                d="M8.085 6.114h13.134c0.138 0 0.25-0.111 0.25-0.248s-0.112-0.248-0.25-0.248h-13.134c-0.138 0-0.25 0.111-0.25 0.248s0.112 0.248 0.25 0.248z">
            </path>
            <path fill="#ff6b09" style="fill: var(--color1, #ff6b09)"
                d="M7.835 7.488v8.017c0 0.137 0.112 0.248 0.25 0.248h18.639c0.138 0 0.25-0.111 0.25-0.248v-8.017c0-0.137-0.112-0.248-0.25-0.248h-18.639c-0.138 0-0.25 0.111-0.25 0.248zM13.363 7.736h13.111v2.131h-13.111v-2.131zM13.363 10.362h13.111v2.13h-13.111v-2.13zM13.363 12.987h13.111v2.271h-13.111v-2.271zM8.336 7.736h4.527v2.131h-4.527v-2.131zM8.336 10.362h4.527v2.13h-4.527v-2.13zM8.336 12.987h4.527v2.271h-4.527v-2.271z">
            </path>
            <path fill="#ff6b09" style="fill: var(--color1, #ff6b09)"
                d="M26.725 16.867h-18.639c-0.138 0-0.25 0.111-0.25 0.248v8.017c0 0.137 0.112 0.247 0.25 0.247s0.25-0.111 0.25-0.247v-2.518h4.527v2.518c0 0.137 0.112 0.247 0.25 0.247s0.25-0.111 0.25-0.247v-2.518h13.111v2.518c0 0.137 0.112 0.247 0.25 0.247s0.25-0.111 0.25-0.247v-8.017c0.001-0.137-0.111-0.248-0.249-0.248zM12.863 22.118h-4.527v-2.13h4.527v2.13zM12.863 19.493h-4.527v-2.13h4.527v2.13zM26.474 22.118h-13.111v-2.13h13.111v2.13zM26.474 19.493h-13.111v-2.13h13.111v2.13z">
            </path>
            <path fill="#ff6b09" style="fill: var(--color1, #ff6b09)"
                d="M4.535 1.745c-0.138 0-0.25 0.111-0.25 0.248v25.546c0 0.136 0.112 0.247 0.25 0.247s0.25-0.111 0.25-0.247v-25.546c0-0.137-0.112-0.248-0.25-0.248z">
            </path>
            <path fill="#ff6b09" style="fill: var(--color1, #ff6b09)"
                d="M3.159 1.745c-0.138 0-0.25 0.111-0.25 0.248v25.546c0 0.136 0.112 0.247 0.25 0.247s0.25-0.111 0.25-0.247v-25.546c0-0.137-0.112-0.248-0.25-0.248z">
            </path>
        </symbol>
        <symbol id="howdoit2" viewBox="0 0 32 32">
            <path fill="#ff6b09" style="fill: var(--color1, #ff6b09)"
                d="M28.090 2.327h-13.424c-0.874 0-1.585 0.707-1.585 1.576v5.526l-9.973 4.162c-0.113 0.047-0.19 0.153-0.198 0.275s0.052 0.238 0.157 0.3l1.272 0.757v8.066c-0.65 0.148-1.138 0.726-1.138 1.419v0.778c0 0.178 0.145 0.323 0.325 0.323h2.277c0.179 0 0.325-0.145 0.325-0.323v-0.778c0-0.692-0.488-1.27-1.139-1.418v-7.681l1.006 0.599c-0.031 0.231-0.004-0.402-0.014 3.755 0 1.367 3.52 2.099 7.102 2.141v6.295c0 0.325 0.1 0.628 0.271 0.879 0.285 0.419 0.767 0.695 1.313 0.695h13.424c0.873 0 1.583-0.706 1.583-1.574 0 0.043-0.002-1.333 0-24.195 0-0.857-0.713-1.576-1.582-1.576zM5.478 24.408v0.455h-1.628v-0.455c0-0.447 0.364-0.812 0.812-0.812 0.45 0 0.816 0.364 0.816 0.812zM28.090 29.025h-13.424c-0.322 0-0.607-0.162-0.775-0.408-0.101-0.148-0.16-0.327-0.16-0.519v-2.182h15.29v2.183c0 0.506-0.424 0.926-0.931 0.926zM29.021 25.27h-15.291v-3.464c1.749-0.020 7.106-0.403 7.106-2.143-0.002-2.612 0.005-3.671-0.008-3.76l2.916-1.737c0.105-0.063 0.166-0.179 0.157-0.3s-0.085-0.228-0.198-0.275l-9.973-4.162v-2.697h15.291v18.539zM13.406 17.519c-1.801 0-5.27 0.231-6.777 1.21 0.010-2.993-0.104-2.798 0.266-3.052 0.936-0.685 3.613-1.164 6.511-1.164 1.264 0 6.781 0.345 6.781 1.507v2.709c-1.521-0.988-4.972-1.21-6.781-1.21zM13.731 3.903c0-0.512 0.419-0.929 0.934-0.929h13.424c0.515 0 0.932 0.422 0.932 0.928v2.182h-15.29v-2.182zM13.406 9.994l9.455 3.946-2.343 1.394c-1.246-1.228-5.366-1.466-7.112-1.466-1.749 0-5.869 0.239-7.112 1.467l-2.343-1.394 9.455-3.946zM6.629 19.664c0-0.523 2.328-1.498 6.777-1.498 4.452 0 6.781 0.976 6.781 1.498s-2.329 1.499-6.781 1.499c-4.449 0-6.777-0.976-6.777-1.499z">
            </path>
            <path fill="#ff6b09" style="fill: var(--color1, #ff6b09)"
                d="M21.377 26.403c-0.592 0-1.074 0.479-1.074 1.068s0.482 1.069 1.074 1.069c0.592 0 1.074-0.479 1.074-1.069s-0.482-1.068-1.074-1.068zM21.377 27.894c-0.234 0-0.425-0.19-0.425-0.423s0.191-0.422 0.425-0.422c0.234 0 0.425 0.189 0.425 0.422s-0.191 0.423-0.425 0.423z">
            </path>
            <path fill="#ff6b09" style="fill: var(--color1, #ff6b09)" d="M22.616 4.207h-2.478v0.646h2.478v-0.646z">
            </path>
        </symbol>
        <symbol id="howdoit3" viewBox="0 0 32 32">
            <path d="M14.717 9.194h-8.443v0.636h8.443v-0.636z"></path>
            <path d="M14.717 11.566h-7.179v0.636h7.179v-0.636z"></path>
            <path d="M14.717 13.939h-8.443v0.636h8.443v-0.636z"></path>
            <path d="M14.717 16.311h-7.179v0.636h7.179v-0.636z"></path>
            <path d="M14.717 18.683h-8.443v0.636h8.443v-0.636z"></path>
            <path d="M14.717 21.055h-7.179v0.636h7.179v-0.636z"></path>
            <path d="M26.308 9.194h-8.443v0.636h8.443v-0.636z"></path>
            <path d="M25.043 11.566h-7.179v0.636h7.179v-0.636z"></path>
            <path d="M26.308 13.939h-8.443v0.636h8.443v-0.636z"></path>
            <path d="M25.043 16.311h-7.179v0.636h7.179v-0.636z"></path>
            <path d="M26.308 18.683h-8.443v0.636h8.443v-0.636z"></path>
            <path d="M25.043 21.055h-7.179v0.636h7.179v-0.636z"></path>
            <path
                d="M29.357 8.47h-1.159v-1.752c0-0.176-0.142-0.318-0.316-0.318h-9.449c-0.922 0-1.721 0.502-2.141 1.253-0.419-0.751-1.219-1.253-2.141-1.253h-9.449c-0.175 0-0.316 0.143-0.316 0.318v1.752h-1.159c-0.175 0-0.316 0.143-0.316 0.318v17.076c0 0.176 0.142 0.318 0.316 0.318 3.174 0 22.946 0 26.131 0 0.174 0 0.316-0.142 0.316-0.318v-17.076c0-0.176-0.142-0.318-0.316-0.318zM18.432 7.036h9.133c0 2.849 0 10.353 0 17.038h-9.808c-0.435 0-0.869 0.185-1.151 0.424v-15.629c0-1.016 0.808-1.832 1.825-1.832zM5.016 7.036h9.133c0.988 0 1.788 0.774 1.821 1.762 0 0.014 0.002 0.057 0.004 0.070v15.628c-0.28-0.238-0.71-0.423-1.147-0.423h-9.812c0-6.683 0-14.19 0-17.038zM3.541 9.106h0.843v15.286c0 0.176 0.142 0.318 0.316 0.318h10.128c0.482 0 0.948 0.318 1.097 0.835h-12.384v-16.439zM29.041 25.546h-12.383c0.15-0.52 0.611-0.835 1.101-0.835h10.124c0.174 0 0.316-0.142 0.316-0.318v-15.286h0.843v16.439z">
            </path>
        </symbol>
        <symbol id="howdoit4" viewBox="0 0 32 32">
            <path fill="#ff6b09" style="fill: var(--color1, #ff6b09)"
                d="M4.055 13.287v2.471c0 0.133 0.060 0.258 0.164 0.34 1.677 1.329 3.78 2.061 5.924 2.061 0.642 0 1.284-0.068 1.912-0.195 1.338 0.596 2.763 0.901 4.237 0.901 1.479 0 2.904-0.305 4.237-0.901 2.678 0.545 5.532-0.040 7.835-1.866 0.104-0.082 0.164-0.208 0.164-0.34v-2.471c0-0.363-0.179-0.693-0.498-0.896l-3.351-1.899c0.733-0.937 1.279-2.271 1.374-3.415 0.278-1.969-1.315-4.055-3.609-4.055-0.965 0-1.881 0.4-2.554 1.071-0.023 0.023-0.050 0.043-0.072 0.067-0.021 0.022-0.038 0.047-0.058 0.070-0.013 0.015-0.025 0.031-0.038 0.046-0.656-1.204-1.916-1.948-3.4-1.948-0.144 0-0.286 0.010-0.426 0.024-0.009-0.001-0.016-0.005-0.024-0.005-0.080 0-0.248 0.021-0.339 0.047-0.013 0.004-0.023 0.013-0.036 0.018-1.109 0.226-2.048 0.902-2.611 1.882-0.677-0.795-1.672-1.272-2.754-1.272-3.386 0-4.888 4.025-2.216 7.489l-3.382 1.891c-0.3 0.191-0.479 0.522-0.479 0.885zM20.52 17.013c-0.073 0.036-0.145 0.074-0.218 0.107l-0 0c-0.001 0-0.001 0.001-0.002 0.001-1.258 0.582-2.607 0.878-4.009 0.878-1.398 0-2.747-0.295-4.011-0.879-0.615-0.282-1.21-0.64-1.772-1.065v-2.505c0-0.085 0.041-0.161 0.089-0.193l3.935-2.203c0.49 0.419 1.115 0.726 1.763 0.726 0.624 0 1.299-0.312 1.778-0.736l3.888 2.199c0.072 0.046 0.113 0.122 0.113 0.207v2.504c-0.495 0.375-1.016 0.694-1.554 0.958zM27.588 13.133c0.051 0.032 0.080 0.088 0.080 0.154v2.258c-1.706 1.289-3.758 1.874-5.837 1.728 0.32-0.201 0.668-0.451 0.938-0.663 0.104-0.082 0.164-0.207 0.164-0.341v-2.718c0-0.38-0.189-0.729-0.529-0.948l-2.065-1.169 0.502-0.28c0.609 0.5 1.132 0.649 1.602 0.649 0.574 0 1.178-0.284 1.627-0.662l3.518 1.993zM22.444 3.888c1.196 0 2.247 0.787 2.618 1.87-0.722-0.086-1.427-0.445-1.938-0.997-0.092-0.1-0.224-0.151-0.36-0.135-0.134 0.014-0.254 0.092-0.323 0.208-0.49 0.827-1.294 1.379-2.207 1.536 0-0.001-0-0.002-0-0.003 0.004-0.188-0.007-0.379-0.028-0.57-0.002-0.020-0.004-0.039-0.006-0.058-0.028-0.217-0.093-0.488-0.105-0.531 0.488-0.787 1.394-1.32 2.351-1.32zM20.139 7.253c1.086-0.12 2.067-0.669 2.742-1.538 0.665 0.549 1.508 0.882 2.341 0.922-0.006 1.564-1.275 4.3-2.778 4.3-1.159 0-2.148-1.669-2.517-2.826 0.094-0.298 0.162-0.584 0.213-0.858zM20.226 10.507l-0.768 0.428-0.775-0.439c0.287-0.361 0.551-0.779 0.777-1.233 0.217 0.459 0.477 0.882 0.766 1.244zM19.068 7.969c-0.414 1.245-1.477 3.046-2.772 3.046-1.51 0-2.795-2.5-3.040-4.098 0.065-0.016 2.105 0.11 3.509-1.746 0.712 0.6 1.674 0.998 2.609 1.037 0.011 0.564-0.125 1.227-0.305 1.761zM16.321 3.193c2.408 0 2.867 2.088 2.905 2.131-0.873-0.089-1.67-0.52-2.221-1.113-0.092-0.1-0.227-0.15-0.36-0.135s-0.254 0.093-0.323 0.21c-0.477 0.813-1.225 1.386-2.092 1.63-0.334 0.094-0.696 0.137-1.011 0.134 0.118-1.59 1.383-2.857 3.102-2.857zM13.125 9.255c0.223 0.449 0.488 0.878 0.791 1.255l-0.759 0.425-0.786-0.445c0.298-0.383 0.551-0.811 0.753-1.235zM10.131 3.888c0.974 0 1.867 0.498 2.365 1.321-0.025 0.087-0.092 0.435-0.101 0.478-0.598-0.144-1.147-0.465-1.578-0.927-0.093-0.099-0.224-0.149-0.36-0.134-0.134 0.015-0.254 0.093-0.323 0.21-0.575 0.977-1.63 1.584-2.753 1.584 0.137-1.42 1.315-2.531 2.75-2.531zM7.419 7.282c1.235-0.012 2.4-0.598 3.156-1.567 0.516 0.428 1.129 0.71 1.781 0.839 0.025 0.502 0.155 1.111 0.303 1.561-0.237 0.733-0.692 1.606-1.257 2.187-0.004 0.004-0.008 0.005-0.012 0.009-0.353 0.375-0.856 0.627-1.251 0.627-1.381 0-2.461-2.189-2.721-3.655zM4.914 13.287c0-0.066 0.029-0.121 0.058-0.141l3.566-1.993c0.214 0.179 0.263 0.2 0.306 0.232l-0 0c0.42 0.281 0.804 0.421 1.329 0.421 0.559 0 1.068-0.239 1.516-0.606 0.025-0.020 0.052-0.039 0.076-0.059l0.509 0.288-2.12 1.188c-0.317 0.206-0.506 0.555-0.506 0.935v2.718c0 0.133 0.060 0.258 0.164 0.34 0.274 0.217 0.63 0.47 0.938 0.664-2.109 0.145-4.161-0.461-5.838-1.728v-2.258z">
            </path>
            <path fill="#ff6b09" style="fill: var(--color1, #ff6b09)"
                d="M29.412 20.463c-0.529-0.335-1.179-0.369-1.739-0.096l-5.302 2.58c-0.018-1-0.828-1.808-1.825-1.808l-3.040 0.001c-1.499-1.313-3.415-2.116-5.157-2.159-1.718-0.041-3.26-0.053-3.979-0.056v-0.874h-6.041v10.051h6.041v-1.204c1.657 0.957 6.012 3.356 8.079 3.356 0.047 0 0.093-0.001 0.137-0.004 3.635-0.205 12.209-6.282 12.775-6.686 0.553-0.323 0.896-0.922 0.896-1.567 0-0.628-0.315-1.201-0.843-1.535zM7.509 27.237h-4.322v-8.32h4.322v8.32zM28.916 22.823c-0.013 0.007-0.026 0.015-0.038 0.024-0.089 0.063-8.908 6.346-12.342 6.54-0.034 0.002-0.068 0.003-0.105 0.003-1.813 0-6.233-2.402-8.064-3.492v-6.106c0.716 0.003 2.25 0.015 3.959 0.056 1.591 0.038 3.358 0.804 4.727 2.047l0.123 0.112 3.368-0.001c0.535 0 0.97 0.438 0.97 0.976s-0.435 0.977-0.969 0.977h-6.188v0.866h6.188c0.593 0 1.116-0.29 1.45-0.733l6.051-2.944c0.297-0.146 0.628-0.127 0.909 0.050s0.44 0.469 0.44 0.801c0 0.341-0.183 0.657-0.479 0.825z">
            </path>
            <path fill="#ff6b09" style="fill: var(--color1, #ff6b09)" d="M16.721 12.938h-0.859v0.803h0.859v-0.803z">
            </path>
            <path fill="#ff6b09" style="fill: var(--color1, #ff6b09)" d="M16.721 14.539h-0.859v0.803h0.859v-0.803z">
            </path>
            <path fill="#ff6b09" style="fill: var(--color1, #ff6b09)" d="M16.721 16.139h-0.859v0.802h0.859v-0.802z">
            </path>
        </symbol>
        <symbol id="howdoit5" viewBox="0 0 32 32">
            <path fill="#ff6b09" style="fill: var(--color1, #ff6b09)"
                d="M4.124 29.091c3.054 0 20.724 0 23.775 0 0.118-2.634-0.076-7.005-1.743-9.085l-0.060-0.075-3.643-1.777c0.079-0.259 0.118-0.497 0.134-0.671 0.018-0.209-0.012-0.406-0.089-0.585-0.601-1.397-1.873-2.132-2.572-2.446 0.213-0.417 0.351-0.865 0.417-1.323 0.396-0.108 0.714-0.413 0.819-0.82l0.425-1.678c0.075-0.296 0.028-0.603-0.134-0.864-0.070-0.113-0.16-0.207-0.261-0.288 1.199-2.646-0.809-5.14-0.918-5.272-2.175-2.284-4.921-1.857-5.067-1.832-3.964 0.807-5.494 3.758-4.63 7.221-0.256 0.275-0.363 0.659-0.268 1.035l0.427 1.68c0.104 0.404 0.42 0.708 0.813 0.817 0.121 0.838 0.487 1.596 1.023 2.207v1.331c-5.689 2.831-2.084 1.025-6.643 3.266-0.009 0.042-2.139 2.241-1.823 8.761l0.019 0.398zM27.073 28.255h-3.913v-1.597l2.588-5.756c1.297 2.091 1.345 6.083 1.325 7.353zM21.733 17.412c-0.151 1.685-1.102 1.176-1.689 2.474-0.462-0.493-0.601-1.085-0.477-1.719 0.224-1.163-0.506-1.508-0.326-2.73l0.027-0.028v-0.004c0.016-0.017 0.16-0.184 0.201-0.236 1.548 0.656 2.293 1.875 2.263 2.243zM13.428 16.087c0.719 0.484 1.586 0.771 2.519 0.771 0.879 0 1.713-0.248 2.429-0.706 0.099 0.961 0.486 1.153 0.349 1.86-0.026 0.131-0.040 0.261-0.048 0.388l-2.665 2.918-3.406-3.731 0.822-0.417v-1.082zM12.356 12.516v-1.618c0-0.596 0-2.959 0-2.843 0.415-0.745 0.98-1.286 1.683-1.61 1.882 1.035 4.048 2.579 5.501 4.132-0.001 1.979 0.006 1.984-0.008 2.147l-0.001 0.010c-0.113 1.797-1.634 3.286-3.584 3.286-1.896 0-3.47-1.446-3.584-3.304-0.006-0.067-0.007-0.133-0.007-0.201zM11.826 17.989l4.186 4.585 2.81-3.078c0.064 0.18 0.154 0.349 0.257 0.513l-3.068 3.728-4.575-5.559 0.389-0.189zM20.397 11.843v-1.292c0.038-0.042 0.357-0.398 0.32-0.356 0.018 0.654 0.090-0.118-0.32 1.648zM15.365 3.197c0.17 0.010 2.454-0.338 4.26 1.556 0.071 0.087 1.541 1.926 0.95 3.939-0.202-0.896-0.554-2.043-1.111-2.591l-0.609 0.589c0.55 0.541 0.911 2.188 1.048 3.042-2.521-2.563-5.774-4.186-5.818-4.213-0.163 0.099-1.539 0.353-2.539 2.24l-0.048 0.090v1.386c-0.043 0-0.169 0.002-0.126 0.001-0.635-2.979 0.581-5.346 3.992-6.040zM11.283 10.097l0.216 0.851v0.895l-0.36-1.414c-0.053-0.211 0.108-0.291 0.143-0.333zM10.653 18.561l5.359 6.512 3.626-4.406c0.394 0.343 0.584 0.392 1.42 0.809l-0.282-0.93c-0.072-0.236 0.212-0.615 0.383-0.789 0.382-0.201 0.7-0.488 0.939-0.843l2.958 1.443-2.753 6.123v1.772h-12.583v-1.772l-2.754-6.123 3.687-1.798zM6.275 20.903l2.588 5.755v1.597h-3.913c-0.020-1.27 0.029-5.26 1.325-7.351z">
            </path>
        </symbol>
        <symbol id="howdoit6" viewBox="0 0 32 32">
            <path fill="#ff6b09" style="fill: var(--color1, #ff6b09)"
                d="M3.018 26.77h9.923c0.503 1.057 1.555 1.74 2.743 1.74h0.627c1.189 0 2.24-0.682 2.743-1.74h9.928c1.023 0 1.855-0.843 1.855-1.879v-18.010c0-1.036-0.832-1.879-1.855-1.879h-1.002v-0.839c0-0.691-0.555-1.253-1.236-1.253h-21.494c-0.682 0-1.236 0.562-1.236 1.253v0.839h-0.995c-1.023 0-1.855 0.843-1.855 1.879v18.010c0 1.036 0.832 1.879 1.855 1.879zM26.743 22.905h-10.125v-14.557c2.34 0.31 4.155 2.339 4.155 4.794v0.565l-0.147-0.033c-0.159-0.035-0.327-0.006-0.465 0.084s-0.236 0.231-0.271 0.393l-0.984 4.538c-0.073 0.337 0.138 0.671 0.471 0.745l2.127 0.475c0.11 0.024 0.222 0.036 0.333 0.036 0.748 0 1.385-0.518 1.548-1.262l0.569-2.624c0.188-0.862-0.351-1.719-1.204-1.911l-0.74-0.165v-0.841c0-3.147-2.367-5.744-5.391-6.060v-2.92h10.126l-0.001 18.743zM20.964 15.032l1.518 0.339c0.19 0.043 0.305 0.226 0.264 0.418l-0.569 2.624c-0.041 0.19-0.248 0.307-0.412 0.272l-1.52-0.34 0.719-3.313zM5.25 4.162h10.132v2.919c-3.027 0.313-5.397 2.912-5.397 6.061v0.841l-0.741 0.166c-0.413 0.093-0.765 0.342-0.992 0.702-0.228 0.361-0.302 0.79-0.211 1.207l0.568 2.621c0.154 0.734 0.805 1.266 1.549 1.266 0.112 0 0.223-0.012 0.337-0.037l2.118-0.474c0.333-0.075 0.543-0.408 0.47-0.745l-0.984-4.538c-0.035-0.162-0.133-0.304-0.271-0.393s-0.307-0.119-0.466-0.084l-0.141 0.032v-0.564c0-2.457 1.817-4.487 4.161-4.795v14.558h-10.132v-18.743zM11.025 15.033l0.72 3.313-1.512 0.338c-0.186 0.042-0.376-0.082-0.415-0.27l-0.569-2.627c-0.021-0.091-0.004-0.184 0.045-0.262s0.127-0.133 0.217-0.154l1.515-0.339zM2.4 6.881c0-0.345 0.277-0.626 0.618-0.626h0.995v16.65c0 0.691 0.555 1.253 1.236 1.253h21.494c0.682 0 1.236-0.562 1.236-1.253v-16.65h1.002c0.341 0 0.618 0.281 0.618 0.626v18.010c0 0.345-0.277 0.626-0.618 0.626h-10.349c-0.272 0-0.511 0.18-0.591 0.443-0.235 0.776-0.931 1.297-1.732 1.297h-0.627c-0.798 0-1.494-0.519-1.734-1.304-0.082-0.259-0.32-0.435-0.589-0.435h-10.342c-0.341 0-0.618-0.281-0.618-0.626v-18.010z">
            </path>
            <symbol id="howdoit-line" viewBox="0 0 320 32">
                <path fill="#ff6b09" style="fill: var(--color1, #ff6b09)" d="M0 0h320v32h-320v-32z"></path>
            </symbol>
        </symbol>
    </defs>
</svg>