<svg aria-hidden="true" style="position:absolute;width:0;height:0;overflow:hidden" xmlns="http://www.w3.org/2000/svg">
  <defs>
    <symbol id="logo-black" viewBox="0 0 85 32">
      <path fill="#ff6b09" style="fill:var(--color1, #ff6b09)" d="M3.003 27.2h.864v3.733h-.864V27.2zm-1.696 3.733H.443V27.2h.864v3.733zm1.76-1.53H1.243v-.731h1.824v.731zm3.438-.699h1.797v.672H6.505v-.672zm.064 1.536h2.032v.693H5.71V27.2h2.821v.693H6.568v2.347zm3.679.693V27.2h.864v3.029h1.872v.704h-2.736zm4.179 0V27.2h.864v3.029h1.872v.704h-2.736zm4.179 0V27.2h.864v3.733h-.864zm3.936.064a3.12 3.12 0 0 1-.859-.117 2.045 2.045 0 0 1-.661-.315l.293-.651a2.164 2.164 0 0 0 1.232.39c.171 0 .308-.016.411-.048.107-.036.185-.084.235-.144s.075-.13.075-.208c0-.1-.039-.178-.117-.235a.906.906 0 0 0-.309-.144 4.66 4.66 0 0 0-.427-.107 6.083 6.083 0 0 1-.464-.128c-.153-.05-.293-.114-.421-.192s-.233-.181-.315-.309a.932.932 0 0 1-.117-.491c0-.213.057-.407.171-.581.117-.178.292-.318.523-.421.235-.107.528-.16.88-.16.235 0 .466.028.693.085.228.053.428.135.603.245l-.267.656a2.183 2.183 0 0 0-1.035-.294c-.167 0-.304.02-.411.059s-.183.091-.229.155a.342.342 0 0 0-.069.213c0 .096.039.174.117.235.078.057.181.103.309.139s.268.071.421.107c.156.036.311.076.464.123.156.046.299.108.427.187s.231.181.309.309c.082.128.123.29.123.485 0 .21-.059.402-.176.576s-.293.315-.528.421c-.231.107-.524.16-.88.16zm5.695-3.797h.864v3.733h-.864V27.2zm-1.696 3.733h-.864V27.2h.864v3.733zm1.76-1.53h-1.824v-.731h1.824v.731z"/>
      <path fill="#111518" style="fill:var(--color2, #111518)" d="M34.209 28.704h1.797v.672h-1.797v-.672zm.064 1.536h2.032v.693h-2.891V27.2h2.821v.693h-1.963v2.347zm3.679.693V27.2h.715l2.203 2.688h-.347V27.2h.853v3.733h-.709l-2.208-2.688h.347v2.688h-.853zm7.07.064c-.295 0-.567-.046-.816-.139a1.992 1.992 0 0 1-.645-.405 1.91 1.91 0 0 1-.427-.613c-.1-.235-.149-.492-.149-.773s.05-.539.149-.773c.103-.235.247-.439.432-.613s.402-.308.651-.4c.249-.096.523-.144.821-.144.331 0 .628.055.891.165.267.11.491.27.672.48l-.555.512a1.33 1.33 0 0 0-.443-.315 1.274 1.274 0 0 0-.523-.107c-.181 0-.347.028-.496.085s-.279.139-.389.245c-.107.107-.19.233-.251.379a1.324 1.324 0 0 0-.085.485c0 .174.028.334.085.48a1.2 1.2 0 0 0 .251.384c.11.107.238.188.384.245.149.057.313.085.491.085.171 0 .336-.027.496-.08.164-.057.322-.151.475-.283l.491.624c-.203.153-.439.27-.709.352a2.71 2.71 0 0 1-.8.123zm.72-.586v-1.403h.789v1.515l-.789-.112zm2.552.522V27.2h.864v3.029h1.872v.704h-2.736zm4.179 0V27.2h.864v3.733h-.864zm3.937.064a3.12 3.12 0 0 1-.859-.117 2.045 2.045 0 0 1-.661-.315l.293-.651a2.164 2.164 0 0 0 1.232.39c.171 0 .308-.016.411-.048.107-.036.185-.084.235-.144s.075-.13.075-.208c0-.1-.039-.178-.117-.235a.906.906 0 0 0-.309-.144 4.66 4.66 0 0 0-.427-.107 6.083 6.083 0 0 1-.464-.128c-.153-.05-.293-.114-.421-.192s-.233-.181-.315-.309a.932.932 0 0 1-.117-.491c0-.213.057-.407.171-.581.117-.178.292-.318.523-.421.235-.107.528-.16.88-.16.235 0 .466.028.693.085.228.053.428.135.603.245l-.267.656a2.183 2.183 0 0 0-1.035-.294c-.167 0-.304.02-.411.059s-.183.091-.229.155a.342.342 0 0 0-.069.213c0 .096.039.174.117.235.078.057.181.103.309.139s.268.071.421.107c.156.036.311.076.464.123.156.046.299.108.427.187s.231.181.309.309c.082.128.123.29.123.485 0 .21-.059.402-.176.576s-.293.315-.528.421c-.231.107-.524.16-.88.16zm5.694-3.797h.864v3.733h-.864V27.2zm-1.696 3.733h-.864V27.2h.864v3.733zm1.76-1.53h-1.824v-.731h1.824v.731zM12.082 6.109v12.925H8.49v-5.041H3.592v5.041H0V6.109h3.592v4.856H8.49V6.109h3.592zM25.228 14.048c0 .025-.018.314-.054.868h-7.147c.145.517.423.917.834 1.2.423.271.949.406 1.578.406.472 0 .877-.068 1.215-.203a3.547 3.547 0 0 0 1.052-.665l1.814 1.92c-.955 1.083-2.352 1.625-4.191 1.625-1.149 0-2.159-.222-3.03-.665s-1.548-1.059-2.032-1.846c-.472-.788-.708-1.68-.708-2.677 0-.985.23-1.865.689-2.64.472-.788 1.119-1.403 1.941-1.846s1.748-.665 2.775-.665c.98 0 1.869.209 2.667.628a4.521 4.521 0 0 1 1.887 1.791c.472.775.707 1.699.707 2.77zm-5.243-2.695c-.532 0-.98.154-1.343.462-.351.308-.574.726-.671 1.256h4.027c-.097-.529-.326-.948-.689-1.256-.351-.308-.792-.462-1.324-.462zM27.542 5.333h3.447v13.7h-3.447v-13.7zM33.955 5.333h3.447v13.7h-3.447v-13.7z"/>
      <path fill="#ff6b09" style="fill:var(--color1, #ff6b09)" d="M55.516 11.062c-.181-.423-.43-.84-.795-1.322-.919-1.209-1.2-3.905-1.203-3.931a.323.323 0 0 0-.215-.275.306.306 0 0 0-.33.094c-1.097 1.283-.636 3.265-.386 4.057.069.217.143.472.196.73.405 2.091-.377 3.038-.561 3.229-.178.052-.299.026-.411-.1-.387-.443-.514-1.894-.334-3.785.037-.385.028-.73-.025-1.054-.381-2.324-1.779-3.815-2.135-4.338-.979-1.513-1.078-4.031-1.081-4.053a.318.318 0 0 0-.171-.278.3.3 0 0 0-.315.023c-1.633 1.16-1.493 3.956-1.265 5.518.053.362.156.731.334 1.196.633 1.665-.125 3.814-.131 3.834s-.012.036-.016.055c-.097.53-.259.847-.439.847a.187.187 0 0 1-.059-.01c-.221-.049-.337-.294-.34-.508-.012-2.757-2.659-3.685-2.687-3.695a.301.301 0 0 0-.33.097.33.33 0 0 0-.044.356c.031.068.131.365.062 1.416a12.543 12.543 0 0 1-.489 2.773 14.099 14.099 0 0 0-.524 4.276c.484 5.505 8.055 6.469 12.548 3.368a4.625 4.625 0 0 0 1.191-1.154c1.658-2.392.683-5.64-.044-7.366zm-11.517 5.259a.317.317 0 0 1-.293.339h-.019a.317.317 0 0 1-.312-.304c-.028-.472-.022-.966.012-1.503a.32.32 0 0 1 .334-.301.322.322 0 0 1 .29.346c-.034.511-.041.976-.012 1.422zm.153-2.864a.314.314 0 0 1-.309.284c-.012 0-.025 0-.041-.003a.323.323 0 0 1-.271-.359l.15-1.248a.317.317 0 0 1 .349-.281.322.322 0 0 1 .271.362l-.15 1.244zM53.408 4.422a.321.321 0 0 1-.26-.368c.02-.131.132-.804.438-1.142.118-.13.315-.137.441-.015s.132.327.014.457c-.129.143-.24.553-.276.798a.314.314 0 0 1-.356.27zM42.045 6.032c-.06-.24-.208-.637-.35-.766-.13-.118-.142-.322-.029-.456s.31-.148.44-.03c.336.305.511.963.543 1.092a.324.324 0 0 1-.224.393.313.313 0 0 1-.38-.232z"/>
      <path fill="#111518" style="fill:var(--color2, #111518)" d="M70.78 15.336v2.798H60.755v-12.8h9.793v2.798h-6.297v2.158h5.548v2.706h-5.548v2.34h6.529zM85.333 5.333v12.8h-2.908l-5.512-6.821v6.821h-3.461v-12.8h2.908l5.512 6.821V5.333h3.46z"/>
    </symbol>
    <symbol id="logo-white" viewBox="0 0 85 32">
      <path fill="#fff" style="fill:var(--color3, #fff)" d="M11.933 4.825v12.913H8.385v-5.036H3.547v5.036H-.001V4.825h3.548v4.851h4.838V4.825h3.548zM24.918 12.757c0 .025-.018.314-.054.867h-7.06c.143.516.418.916.824 1.199.418.271.938.406 1.559.406.466 0 .866-.068 1.2-.203a3.513 3.513 0 0 0 1.039-.664l1.792 1.919c-.944 1.082-2.323 1.623-4.139 1.623-1.135 0-2.132-.221-2.992-.664s-1.529-1.058-2.007-1.845c-.466-.787-.699-1.679-.699-2.675 0-.984.227-1.863.681-2.638.466-.787 1.105-1.402 1.917-1.845s1.726-.664 2.741-.664c.968 0 1.846.209 2.634.627a4.482 4.482 0 0 1 1.863 1.789c.466.775.699 1.697.699 2.767zm-5.179-2.693c-.526 0-.968.154-1.326.461-.346.307-.567.726-.663 1.254h3.978c-.096-.529-.323-.947-.681-1.254-.346-.307-.782-.461-1.308-.461zM27.204 4.05h3.404v13.688h-3.404V4.05zM33.538 4.05h3.404v13.688h-3.404V4.05z"/>
      <path fill="#ff6b09" style="fill:var(--color1, #ff6b09)" d="M3.003 27.011h.864v3.733h-.864v-3.733zm-1.696 3.733H.443v-3.733h.864v3.733zm1.76-1.53H1.243v-.731h1.824v.731zm3.438-.699h1.797v.672H6.505v-.672zm.064 1.536h2.032v.693H5.71v-3.733h2.821v.693H6.568v2.347zm3.679.693v-3.733h.864v3.029h1.872v.704h-2.736zm4.179 0v-3.733h.864v3.029h1.872v.704h-2.736zm4.179 0v-3.733h.864v3.733h-.864zm3.936.064a3.12 3.12 0 0 1-.859-.117 2.045 2.045 0 0 1-.661-.315l.293-.651a2.164 2.164 0 0 0 1.232.39c.171 0 .308-.016.411-.048.107-.036.185-.084.235-.144s.075-.13.075-.208c0-.1-.039-.178-.117-.235a.906.906 0 0 0-.309-.144 4.66 4.66 0 0 0-.427-.107 6.083 6.083 0 0 1-.464-.128c-.153-.05-.293-.114-.421-.192s-.233-.181-.315-.309a.932.932 0 0 1-.117-.491c0-.213.057-.407.171-.581.117-.178.292-.318.523-.421.235-.107.528-.16.88-.16.235 0 .466.028.693.085.228.053.428.135.603.245l-.267.656a2.183 2.183 0 0 0-1.035-.294c-.167 0-.304.02-.411.059a.47.47 0 0 0-.229.155.342.342 0 0 0-.069.213c0 .096.039.174.117.235.078.057.181.103.309.139s.268.071.421.107c.156.036.311.076.464.123.156.046.299.108.427.187s.231.181.309.309c.082.128.123.29.123.485 0 .21-.059.402-.176.576s-.293.315-.528.421c-.231.107-.524.16-.88.16zm5.695-3.797h.864v3.733h-.864v-3.733zm-1.696 3.733h-.864v-3.733h.864v3.733zm1.76-1.53h-1.824v-.731h1.824v.731z"/>
      <path fill="#fff" style="fill:var(--color3, #fff)" d="M34.209 28.515h1.797v.672h-1.797v-.672zm.064 1.536h2.032v.693h-2.891v-3.733h2.821v.693h-1.963v2.347zm3.679.693v-3.733h.715l2.203 2.688h-.347v-2.688h.853v3.733h-.709l-2.208-2.688h.347v2.688h-.853zm7.07.064c-.295 0-.567-.046-.816-.139a1.992 1.992 0 0 1-.645-.405 1.91 1.91 0 0 1-.427-.613c-.1-.235-.149-.492-.149-.773s.05-.539.149-.773c.103-.235.247-.439.432-.613s.402-.308.651-.4c.249-.096.523-.144.821-.144.331 0 .628.055.891.165.267.11.491.27.672.48l-.555.512a1.33 1.33 0 0 0-.443-.315 1.274 1.274 0 0 0-.523-.107c-.181 0-.347.028-.496.085s-.279.139-.389.245c-.107.107-.19.233-.251.379a1.324 1.324 0 0 0-.085.485c0 .174.028.334.085.48a1.2 1.2 0 0 0 .251.384c.11.107.238.188.384.245.149.057.313.085.491.085.171 0 .336-.027.496-.08.164-.057.322-.151.475-.283l.491.624c-.203.153-.439.27-.709.352a2.71 2.71 0 0 1-.8.123zm.72-.586v-1.403h.789v1.515l-.789-.112zm2.552.522v-3.733h.864v3.029h1.872v.704h-2.736zm4.179 0v-3.733h.864v3.733h-.864zm3.937.064a3.12 3.12 0 0 1-.859-.117 2.045 2.045 0 0 1-.661-.315l.293-.651a2.164 2.164 0 0 0 1.232.39c.171 0 .308-.016.411-.048.107-.036.185-.084.235-.144s.075-.13.075-.208c0-.1-.039-.178-.117-.235a.906.906 0 0 0-.309-.144 4.66 4.66 0 0 0-.427-.107 6.083 6.083 0 0 1-.464-.128c-.153-.05-.293-.114-.421-.192s-.233-.181-.315-.309a.932.932 0 0 1-.117-.491c0-.213.057-.407.171-.581.117-.178.292-.318.523-.421.235-.107.528-.16.88-.16.235 0 .466.028.693.085.228.053.428.135.603.245l-.267.656a2.183 2.183 0 0 0-1.035-.294c-.167 0-.304.02-.411.059a.47.47 0 0 0-.229.155.342.342 0 0 0-.069.213c0 .096.039.174.117.235.078.057.181.103.309.139s.268.071.421.107c.156.036.311.076.464.123.156.046.299.108.427.187s.231.181.309.309c.082.128.123.29.123.485 0 .21-.059.402-.176.576s-.293.315-.528.421c-.231.107-.524.16-.88.16zm5.694-3.797h.864v3.733h-.864v-3.733zm-1.696 3.733h-.864v-3.733h.864v3.733zm1.76-1.53h-1.824v-.731h1.824v.731zM70.715 14.915v2.822h-10.07V4.824h9.837v2.822h-6.325v2.177h5.572v2.73h-5.572v2.361h6.558zM85.333 4.824v12.913h-2.921l-5.537-6.881v6.881h-3.476V4.824h2.921l5.537 6.881V4.824h3.476z"/>
      <path fill="#ff6b09" style="fill:var(--color1, #ff6b09)" d="M55.628 11.037c-.183-.423-.436-.839-.805-1.319-.932-1.206-1.216-3.896-1.219-3.922a.323.323 0 0 0-.218-.274.314.314 0 0 0-.335.094c-1.112 1.28-.644 3.257-.392 4.047.069.216.145.471.199.729.411 2.087-.382 3.031-.569 3.222-.18.052-.303.026-.417-.1-.392-.442-.521-1.89-.338-3.776a3.995 3.995 0 0 0-.025-1.051c-.386-2.319-1.803-3.806-2.164-4.328C48.353 2.85 48.252.337 48.249.315a.316.316 0 0 0-.174-.277.306.306 0 0 0-.319.023c-1.655 1.158-1.513 3.947-1.282 5.505.054.361.158.729.338 1.193.641 1.661-.126 3.805-.133 3.825s-.013.035-.016.055c-.098.529-.262.845-.445.845a.193.193 0 0 1-.06-.01c-.224-.048-.341-.293-.344-.506-.013-2.751-2.694-3.676-2.723-3.686a.308.308 0 0 0-.335.097.325.325 0 0 0-.044.355c.032.068.133.364.063 1.413-.06.942-.227 1.874-.496 2.767a13.88 13.88 0 0 0-.531 4.267c.491 5.492 8.163 6.455 12.716 3.36a4.672 4.672 0 0 0 1.206-1.151c1.68-2.386.692-5.628-.044-7.35zm-11.671 5.247a.32.32 0 0 1-.297.339h-.019a.319.319 0 0 1-.316-.303c-.028-.471-.022-.964.013-1.5a.322.322 0 0 1 .338-.3.323.323 0 0 1 .294.345c-.035.51-.041.974-.013 1.419zm.155-2.858a.317.317 0 0 1-.313.284c-.013 0-.025 0-.041-.003a.324.324 0 0 1-.275-.358l.152-1.245a.321.321 0 0 1 .354-.281.322.322 0 0 1 .275.361l-.152 1.242zM53.492 4.412a.322.322 0 0 1-.264-.368c.02-.131.134-.802.444-1.139.119-.13.319-.137.447-.015s.134.326.014.456c-.131.143-.243.552-.28.796a.317.317 0 0 1-.361.269zM41.976 6.018c-.06-.24-.211-.635-.355-.764-.131-.117-.144-.321-.029-.455s.314-.148.446-.03c.34.305.518.961.55 1.089a.323.323 0 0 1-.227.392.316.316 0 0 1-.385-.232z"/>
    </symbol>
    <symbol id="menu-open" fill="none" >
      <path d="M1 1h21M1 7h21M1 13h21" stroke="#000" stroke-width="2" stroke-linecap="round"/>
    </symbol>
    <symbol id="menu-close" fill="none" >
      <path d="M1 15.496 15.496 1M15.496 15.496 1 1" stroke="#fff" stroke-width="2" stroke-linecap="round"/>
    </symbol>
    <symbol id="instagram" viewBox="0 0 32 32">
      <path d="M0.528 10.029c0.103-0.724 0.181-1.452 0.311-2.171 0.739-4.072 3.622-6.842 7.743-6.984 4.963-0.171 9.941-0.18 14.903-0.001 4.486 0.161 7.735 3.483 7.875 7.971 0.149 4.765 0.149 9.542 0 14.307-0.14 4.488-3.388 7.809-7.875 7.971-4.962 0.179-9.941 0.184-14.903-0.003-4.487-0.169-7.589-3.498-7.889-7.992-0.026-0.389-0.109-0.774-0.166-1.161 0-3.979 0-7.958 0-11.937zM16.004 28.463c2.271 0 4.544 0.068 6.812-0.016 3.556-0.132 5.743-2.254 5.826-5.806 0.103-4.426 0.103-8.859 0-13.286-0.083-3.552-2.272-5.723-5.826-5.799-4.511-0.095-9.028-0.095-13.539 0-3.527 0.074-5.721 2.202-5.817 5.714-0.122 4.482-0.122 8.973 0 13.455 0.096 3.512 2.289 5.591 5.817 5.721 2.239 0.083 4.484 0.016 6.727 0.016z"></path>
      <path d="M15.999 8.115c-4.355 0-7.885 3.53-7.885 7.885s3.531 7.885 7.885 7.885c4.355 0 7.885-3.53 7.885-7.885s-3.53-7.885-7.885-7.885zM15.999 21.17c-2.856 0-5.17-2.315-5.17-5.171s2.315-5.17 5.171-5.17c2.856 0 5.171 2.315 5.171 5.171s-2.315 5.171-5.171 5.171z"></path>
      <path d="M26.222 7.755c0 1.036-0.84 1.876-1.876 1.876s-1.876-0.84-1.876-1.876c0-1.036 0.84-1.876 1.876-1.876s1.876 0.84 1.876 1.876z"></path>
    </symbol>
    <symbol id="campfire" viewBox="0 0 23 32">
      <path d="M21.909 16.593c-0.284-0.635-0.675-1.261-1.247-1.983-1.442-1.813-1.882-5.857-1.887-5.896-0.020-0.194-0.156-0.354-0.337-0.412-0.186-0.058-0.386-0.005-0.518 0.141-1.721 1.925-0.997 4.897-0.606 6.085 0.108 0.325 0.225 0.708 0.308 1.096 0.636 3.137-0.592 4.558-0.88 4.844-0.279 0.078-0.469 0.039-0.645-0.15-0.606-0.664-0.807-2.841-0.523-5.678 0.059-0.577 0.044-1.096-0.039-1.581-0.598-3.486-2.791-5.722-3.349-6.507-1.535-2.269-1.692-6.046-1.696-6.080-0.005-0.179-0.108-0.339-0.269-0.417-0.156-0.078-0.347-0.068-0.494 0.034-2.562 1.741-2.342 5.935-1.985 8.276 0.083 0.543 0.244 1.096 0.523 1.794 0.992 2.497-0.196 5.721-0.205 5.75s-0.020 0.053-0.024 0.082c-0.152 0.795-0.406 1.27-0.689 1.27-0.029 0-0.059-0.005-0.093-0.015-0.347-0.073-0.528-0.441-0.533-0.761-0.020-4.136-4.17-5.527-4.214-5.542-0.186-0.058-0.391-0.005-0.518 0.145-0.132 0.15-0.156 0.359-0.068 0.533 0.049 0.102 0.205 0.548 0.098 2.124-0.093 1.416-0.352 2.817-0.768 4.16-0.988 3.219-0.831 6.269-0.821 6.415 0.759 8.257 12.635 9.704 19.683 5.052 0.772-0.509 1.403-1.091 1.868-1.731 2.601-3.588 1.071-8.461-0.068-11.050zM3.845 24.481c0.015 0.267-0.191 0.494-0.46 0.509h-0.029c-0.259 0-0.474-0.199-0.489-0.456-0.044-0.708-0.034-1.45 0.020-2.255 0.020-0.267 0.254-0.465 0.523-0.451 0.269 0.019 0.474 0.252 0.455 0.519-0.054 0.766-0.064 1.464-0.020 2.133zM4.084 20.186c-0.029 0.247-0.24 0.427-0.484 0.427-0.020 0-0.039 0-0.064-0.005-0.264-0.034-0.455-0.272-0.425-0.538l0.235-1.871c0.034-0.262 0.274-0.451 0.548-0.422 0.269 0.034 0.46 0.276 0.425 0.543l-0.235 1.867z"></path>
      <path d="M18.602 6.633c-0.267-0.041-0.45-0.288-0.408-0.553 0.030-0.197 0.207-1.205 0.686-1.713 0.185-0.196 0.493-0.206 0.691-0.022s0.207 0.49 0.022 0.685c-0.203 0.215-0.376 0.829-0.433 1.197-0.041 0.262-0.287 0.445-0.558 0.405z"></path>
      <path d="M0.778 9.048c-0.094-0.361-0.326-0.955-0.549-1.149-0.203-0.177-0.223-0.483-0.045-0.684s0.486-0.222 0.69-0.045c0.527 0.458 0.802 1.445 0.852 1.638 0.067 0.259-0.091 0.523-0.352 0.59-0.267 0.067-0.529-0.094-0.595-0.349z"></path>
    </symbol>
    <symbol id="phone" viewBox="0 0 32 32">
      <path d="M4.657 0.003c-0.515 0.025-1.021 0.253-1.392 0.678l-2.595 2.969c0.004-0.009-0.010-0.008-0.084 0.101-0.039 0.056-0.070 0.118-0.090 0.184-1.056 3.502-0.348 7.354 1.376 11.018s4.475 7.17 7.633 10.047c3.158 2.877 6.721 5.128 10.119 6.244s6.692 1.102 9.133-0.742c0.027-0.020 0.052-0.043 0.075-0.068 0.064-0.067 0.066-0.075 0.056-0.065l0.010-0.013 2.582-2.956c0.742-0.849 0.682-2.184-0.134-2.956l-6.126-5.799c-0.816-0.772-2.098-0.711-2.84 0.138l-2.772 3.173c-2.25-0.678-4.173-1.828-6.023-3.58s-3.132-3.637-3.993-5.905l2.771-3.173c0.742-0.849 0.683-2.184-0.133-2.956l-6.126-5.8c-0.408-0.386-0.933-0.564-1.448-0.539l-0.001 0zM4.715 1.304c0.19-0.009 0.383 0.060 0.541 0.209l6.126 5.8c0.316 0.299 0.337 0.776 0.050 1.104l-3.063 3.504c-0.077 0.089-0.129 0.197-0.151 0.314s-0.013 0.239 0.027 0.351c0.93 2.641 2.429 4.807 4.493 6.761s4.275 3.304 6.889 4.018c0.111 0.030 0.228 0.028 0.339-0.005s0.21-0.099 0.287-0.188l3.064-3.505c0.287-0.328 0.744-0.35 1.060-0.051l6.127 5.8c0.316 0.299 0.336 0.775 0.049 1.103l-2.561 2.93c-2.003 1.497-4.826 1.581-7.986 0.542-3.173-1.043-6.617-3.202-9.666-5.98s-5.702-6.169-7.332-9.633c-1.614-3.429-2.199-6.895-1.312-9.95l2.502-2.862c0.143-0.164 0.33-0.252 0.52-0.261l0 0z"></path>
    </symbol>
    <symbol id="facebook">    
      <path d="M28.786 2.531H5.214c-.852 0-1.67.336-2.273.934A3.172 3.172 0 0 0 2 5.718v23.366c0 .845.339 1.655.941 2.253.603.598 1.42.933 2.273.933h9.191V22.16h-4.219V17.4h4.22v-3.626c0-4.126 2.477-6.405 6.272-6.405 1.817 0 3.717.322 3.717.322v4.049h-2.093c-2.064 0-2.707 1.27-2.707 2.57v3.09H24.2l-.737 4.76h-3.87v10.11h9.192c.852 0 1.67-.336 2.273-.933A3.172 3.172 0 0 0 32 29.084V5.718c0-.845-.339-1.656-.941-2.253a3.229 3.229 0 0 0-2.273-.934Z" fill="#436EAB"/>
    </symbol>
  </defs>
</svg>